<svg xmlns="http://www.w3.org/2000/svg" viewBox="0 0 640 480">
  <path fill="#bd3d44" d="M0 0h640v480H0"/>
  <path stroke="#fff" stroke-width="37" d="M0 55.3h640M0 129h640M0 203h640M0 277h640M0 351h640M0 425h640"/>
  <path fill="#192f5d" d="M0 0h364.8v258.5H0"/>
  <marker id="us-star" markerHeight="30" markerWidth="30">
    <path fill="#fff" d="m14 0 4.3 13.2H32L21 21.5l4.3 13.2L14 26.5 2.7 34.7l4.3-13.2L-4 13.2h13.7z"/>
  </marker>
  <g fill="#fff">
    <g id="us-row1">
      <path d="m30 17 4.3 13.2H48L37 38.5l4.3 13.2L30 43.5l-11.3 8.2 4.3-13.2L12 30.2h13.7z"/>
      <path d="m70 17 4.3 13.2H88L77 38.5l4.3 13.2L70 43.5l-11.3 8.2 4.3-13.2L52 30.2h13.7z"/>
      <path d="m110 17 4.3 13.2h13.7l-11 8.3 4.3 13.2-11.3-8.2-11.3 8.2 4.3-13.2-11-8.3h13.7z"/>
      <path d="m150 17 4.3 13.2h13.7l-11 8.3 4.3 13.2-11.3-8.2-11.3 8.2 4.3-13.2-11-8.3h13.7z"/>
      <path d="m190 17 4.3 13.2h13.7l-11 8.3 4.3 13.2-11.3-8.2-11.3 8.2 4.3-13.2-11-8.3h13.7z"/>
      <path d="m230 17 4.3 13.2h13.7l-11 8.3 4.3 13.2-11.3-8.2-11.3 8.2 4.3-13.2-11-8.3h13.7z"/>
    </g>
    <g id="us-row2">
      <path d="m50 45 4.3 13.2H68L57 66.5l4.3 13.2L50 71.5l-11.3 8.2 4.3-13.2L32 58.2h13.7z"/>
      <path d="m90 45 4.3 13.2h13.7l-11 8.3 4.3 13.2L90 71.5l-11.3 8.2 4.3-13.2-11-8.3h13.7z"/>
      <path d="m130 45 4.3 13.2h13.7l-11 8.3 4.3 13.2-11.3-8.2-11.3 8.2 4.3-13.2-11-8.3h13.7z"/>
      <path d="m170 45 4.3 13.2h13.7l-11 8.3 4.3 13.2-11.3-8.2-11.3 8.2 4.3-13.2-11-8.3h13.7z"/>
      <path d="m210 45 4.3 13.2h13.7l-11 8.3 4.3 13.2-11.3-8.2-11.3 8.2 4.3-13.2-11-8.3h13.7z"/>
    </g>
    <use href="#us-row1" y="56"/>
    <use href="#us-row2" y="56"/>
    <use href="#us-row1" y="112"/>
    <use href="#us-row2" y="112"/>
    <use href="#us-row1" y="168"/>
  </g>
</svg>
